<svg xmlns="http://www.w3.org/2000/svg" version="1.1" xmlns:xlink="http://www.w3.org/1999/xlink" width="512" height="512" x="0" y="0" viewBox="0 0 135.467 135.467" style="enable-background:new 0 0 512 512" xml:space="preserve" class=""><g><path fill="#0047eb" d="M45.699 38.025a6.84 10.794.756 0 1-6.981 10.704 6.84 10.794.756 0 1-6.696-10.884 6.84 10.794.756 0 1 6.98-10.703A6.84 10.794.756 0 1 45.7 38.025z" paint-order="stroke fill markers" opacity="1" data-original="#0047eb" class=""></path><path fill="#00004f" d="M87.234 92.572c-3.438 2.4-7.764 5.198-10.726 12.01-1.632 3.755-2.103 7.087-1.852 9.99 1.966-.6 3.927-.762 4.857.974 1.733 3.235 3.004 8.088 5.2 9.07 1.922.86 1.895-5.811 4.963-8.065-1.405-2.746-.872-7.8 4.246-12.464a11.716 11.716 0 0 0 1.45-1.608 11.785 11.785 0 0 0-2.052-3.744c-2.274-2.77-4.181-4.986-6.086-6.163zm-9.229 2.681c-3.773 3.788-4.4 6.821-9.676 8.533-5.973 1.94-10.422 1.188-12.213 7.139-.949 3.153-1.703 3.97-1.936 4.901 1.05 6.408 5.61 10.523 8.334 12.258.597-3.706 4.332-9.427 6.655-11.304-1.557-2.688-1.143-7.897 4.12-12.693 2.206-2.009 3.77-5.196 4.716-8.834z" paint-order="stroke fill markers" opacity="1" data-original="#00004f" class=""></path><path fill="#00b5ff" d="M37.008 72.576c.454.866 2.774 7.355 4.546 8.261 1.771.907 11.857-4.925 12.228-5.049s3.172 1.813 3.131 1.978c-.041.165-6.386 13.142-7.663 14.626-1.277 1.483-8.695 5.455-15.245 3.272-6.55-2.184-10.056-16.277-11.25-18.584s14.253-4.504 14.253-4.504z" paint-order="stroke fill markers" opacity="1" data-original="#00b5ff" class=""></path><path fill="#00b5ff" d="M49.838 98.458c-1.413 8.723-1.148 14.162 1.772 21.427l8.973 1.264c2.976-8.545 3.665-10.353 4.79-17.708z" paint-order="stroke fill markers" opacity="1" data-original="#00b5ff" class=""></path><path fill="#ffffff" d="M60.352 107.784a.346.346 0 0 0-.053.006.346.346 0 0 0-.279.401c.088.486.08 1.538-.02 2.813s-.283 2.795-.511 4.31-.502 3.027-.781 4.288c-.28 1.26-.575 2.285-.801 2.756a.346.346 0 0 0 .161.462.346.346 0 0 0 .463-.161c.288-.6.569-1.626.852-2.908s.56-2.806.79-4.334c.23-1.529.414-3.06.516-4.36s.13-2.342.012-2.989a.346.346 0 0 0-.349-.284z" paint-order="stroke fill markers" opacity="1" data-original="#ffffff" class=""></path><path fill="#0047eb" d="M50.233 120.727c.585 1.788 1.48 4.97 1.042 6.005-.439 1.035-4.913 1.466-4.913 5.24 0 1.188 11.126.848 13.356.33 2.23-.517 1.558-4.423.973-5.364-.585-.94 1.28-5.505 1.755-6.728.475-1.224-6.91-1.224-9.178-1.177-2.267.047-3.546.33-3.035 1.694z" paint-order="stroke fill markers" opacity="1" data-original="#0047eb" class=""></path><path fill="#00b5ff" d="M75.67 70.4s15.13 5.978 22.45 15.373c2.717 3.486 4.39 6.955 5.416 10.109-3.424.718-10.083 2.449-13.867 5.639-2.674-7.092-5.405-15.762-10.46-20.75z" paint-order="stroke fill markers" opacity="1" data-original="#00b5ff" class=""></path><path fill="#ffffff" d="M86.244 84.492a.346.346 0 0 1 .253.107s1.758 1.831 3.397 3.977c.82 1.073 1.611 2.225 2.144 3.285s.855 2.04.531 2.838c-.443 1.096-.186 2.395.213 3.431.4 1.036.916 1.776.916 1.776a.346.346 0 0 1-.086.481.346.346 0 0 1-.482-.085s-.562-.803-.993-1.923c-.431-1.12-.757-2.588-.21-3.94.172-.425-.008-1.274-.508-2.267-.5-.994-1.27-2.122-2.074-3.176-1.61-2.107-3.348-3.918-3.348-3.918a.346.346 0 0 1 .01-.489.346.346 0 0 1 .237-.097z" paint-order="stroke fill markers" opacity="1" data-original="#ffffff" class=""></path><g stroke-linecap="round" stroke-linejoin="round" paint-order="stroke fill markers"><path fill="#007bf1" d="M75.67 70.4s3.975 1.573 8.834 4.368c-.336 2.934 1.772 7.684 2.95 11.562.948 3.126.934 5.957-.46 8.032-1.998-5.13-4.356-10.208-7.785-13.592z" opacity="1" data-original="#007bf1"></path><path fill="#0047eb" d="M103.068 94.447c-2.266.206-13.802 4.532-14.296 5.768-.494 1.236 1.772 5.108 2.637 7.374s3.09 4.944 7.58 4.944c4.491 0 6.386-3.502 6.428-7.786.04-4.285-.866-10.547-2.349-10.3z" opacity="1" data-original="#0047eb" class=""></path></g><path fill="#007bf1" d="M51.858 101.23c-.4-.002-.67.031-.767.102-.294.216-1.087.836-1.834 1.424-.122 1.182-.2 2.31-.232 3.398 1.084 1.47 2.81 3.358 5.156 4.53 3.286 1.643 6.607 2.669 8.525 4.293 1.106-3.35 1.69-5.627 2.325-9.402-.454-.674-1.16-1.32-2.363-1.936-2.711-1.39-8.65-2.4-10.81-2.409z" paint-order="stroke fill markers" opacity="1" data-original="#007bf1"></path><path fill="#ffffff" d="M23.872 75.757a.346.346 0 0 0-.256.56c1.356 1.71 5.477 6.885 7.613 8.97a53.473 53.473 0 0 0 3.054 2.785c.932.775 1.727 1.353 2.348 1.631.611.273 1.172.313 1.667.21.495-.104.917-.335 1.32-.568.807-.467 1.51-.937 2.582-.78 1.25.183 2.818.107 4.274-.34s2.812-1.277 3.539-2.637a.346.346 0 0 0-.61-.326c-.614 1.146-1.792 1.89-3.133 2.302-1.34.412-2.832.483-3.97.316-1.318-.193-2.247.415-3.028.866-.39.226-.75.413-1.116.49-.367.076-.746.058-1.242-.164-.486-.217-1.277-.775-2.188-1.532a52.863 52.863 0 0 1-3.014-2.748c-2.117-2.066-6.23-7.235-7.554-8.905a.346.346 0 0 0-.286-.13z" paint-order="stroke fill markers" opacity="1" data-original="#ffffff" class=""></path><path fill="#007bf1" d="M53.824 75.782a.14.14 0 0 0-.042.006c-.172.058-2.242 1.143-4.214 2.265.243 1.731.513 4.37-.793 7.373-1.194 2.746-1.133 5.826-.79 8.18.53-.396.934-.83 1.265-1.214 1.277-1.484 7.622-14.461 7.663-14.626.04-.16-2.588-1.982-3.09-1.984z" paint-order="stroke fill markers" opacity="1" data-original="#007bf1"></path><g paint-order="stroke fill markers"><path fill="#00b5ff" d="M83.82 98.48c3.4 8.723 4.371 14.161 3.105 21.426l-8.686 1.265c-4.92-8.546-6.02-10.353-8.82-17.709z" opacity="1" data-original="#00b5ff" class=""></path><path fill="#ffffff" d="M79.789 110.4a.388.309 41.754 0 1 .406.277s.81 1.87 1.615 4.266c.804 2.396 1.614 5.317 1.597 7.501a.388.309 41.754 0 1-.358.258.388.309 41.754 0 1-.352-.416c.016-2.018-.765-4.907-1.559-7.269-.793-2.362-1.59-4.2-1.59-4.2a.388.309 41.754 0 1 .177-.409.388.309 41.754 0 1 .064-.007z" opacity="1" data-original="#ffffff" class=""></path><path fill="#007bf1" d="M83.82 98.48c1.702 4.367 2.795 7.912 3.304 11.274-3.177-.94-8.709 4.513-13.188 3.834-1.717-3.18-2.797-5.607-4.517-10.126z" opacity="1" data-original="#007bf1"></path><g stroke-linecap="round" stroke-linejoin="round" stroke-width="1.51"><path fill="#0047eb" d="M88.493 120.749c-.178 1.788-.865 6.164-.19 7.199.674 1.035 1.98 2.917 1.871 4.046-.108 1.13-7.96.847-10.309.33-2.348-.518-.787-4.423-.416-5.364.37-.941-2.533-5.505-3.287-6.729-.753-1.223 6.633-1.223 8.91-1.176 2.278.047 3.622.33 3.42 1.694z" opacity="1" data-original="#0047eb" class=""></path></g></g><path fill="#00b5ff" d="M61.208 70.747a3.492 3.492 0 0 0-1.764.474c-6.73 3.895-11.517 17.032-11.517 26.66s9.01 14.74 20.126 14.74 20.125-5.771 20.125-15.564-4.787-21.941-11.517-25.836c-2.647-1.532-5.47 1.14-8.608 1.14-2.452 0-4.712-1.63-6.845-1.614z" paint-order="stroke fill markers" opacity="1" data-original="#00b5ff" class=""></path><path fill="#0047eb" d="M86.713 100.75a4.654 4.654 0 0 0-.59.046c-1.812.247-11.165.907-13.43 2.678-2.267 1.772-2.596 2.349-5.604 1.69-3.007-.66-4.52-3.708-7.25-3.708-2.7 0-3.873 2.554-5.645 2.183-1.772-.37-5.995-3.584-6.108-2.266a.79.79 0 0 0 .061.33c.378 1.724 2.14 5.96 7.602 8.652 5.85 2.884 12.154 2.471 12.154 2.471s6.303.413 12.154-2.471c5.85-2.884 7.457-7.54 7.663-8.982 0 0 .166-.63-1.007-.623z" paint-order="stroke fill markers" opacity="1" data-original="#0047eb" class=""></path><path fill="#ffffff" d="M85.136 82.384c-3.602.39-7.312 2.653-9.787 7.67-1.44 2.92-4.252 4.013-6.76 4.385-2.509.372-4.654.001-4.654.001a.346.346 0 0 0-.4.282.346.346 0 0 0 .282.4s2.242.392 4.873.001c2.631-.39 5.711-1.583 7.28-4.762 2.437-4.941 6-7.025 9.432-7.314a38.745 38.745 0 0 0-.266-.664zm-33.968.002c-.09.22-.178.442-.265.665.77.604 1.946 1.828 1.998 3.706.041 1.53.26 3.17 1.125 4.623.864 1.453 2.378 2.689 4.894 3.412a.346.346 0 0 0 .428-.237.346.346 0 0 0-.237-.428c-2.388-.686-3.718-1.802-4.491-3.101-.773-1.3-.987-2.81-1.028-4.288-.062-2.283-1.56-3.713-2.424-4.352z" paint-order="stroke fill markers" opacity="1" data-original="#ffffff" class=""></path><path fill="#0047eb" d="M64.968 94.46a4.37 5.232 0 0 1-4.37 5.232 4.37 5.232 0 0 1-4.37-5.232 4.37 5.232 0 0 1 4.37-5.233 4.37 5.232 0 0 1 4.37 5.233z" paint-order="stroke fill markers" opacity="1" data-original="#0047eb" class=""></path><path fill="#ffffff" d="M62.18 94.46a1.583 1.895 0 0 1-1.582 1.895 1.583 1.895 0 0 1-1.583-1.895 1.583 1.895 0 0 1 1.583-1.895 1.583 1.895 0 0 1 1.583 1.895z" paint-order="stroke fill markers" opacity="1" data-original="#ffffff" class=""></path><path fill="#ffffff" d="M60.598 90.53c-1.81 0-3.283 1.763-3.283 3.93 0 2.167 1.473 3.93 3.283 3.93 1.81 0 3.283-1.763 3.283-3.93 0-2.167-1.473-3.93-3.283-3.93zm0 .69c1.497 0 2.705 1.447 2.705 3.24 0 1.793-1.208 3.239-2.705 3.239s-2.705-1.446-2.705-3.239 1.208-3.24 2.705-3.24z" paint-order="stroke fill markers" opacity="1" data-original="#ffffff" class=""></path><path fill="#00004f" d="M55.32 72.577c1.162.983 6.333 4.189 10.2 5 3.867.812 5.57.577 4.018.207-1.552-.37-6.944-1.727-9.326-3.299-2.381-1.572-6.504-3.05-4.891-1.908zM78.776 75.78s-5.128.432-9.008-.292c-3.88-.724-.395 1.42 3.722 1.372s8.133-1.006 5.286-1.08zM62.1 78.134c3.551 2.108 6.626 1.858 5.776 2.357s-2.845 1.092-4.168-.006c-1.322-1.097-3.326-3.195-1.608-2.351z" paint-order="stroke fill markers" opacity="1" data-original="#00004f" class=""></path><path fill="#00b5ff" d="M108.543 48.2c-2.974 20.354-21.146 29.388-41.5 26.414-20.353-2.975-35.18-16.83-32.206-37.183C37.811 17.077 56.936 1.52 77.289 4.495c20.354 2.974 34.228 23.352 31.254 43.706z" paint-order="stroke fill markers" opacity="1" data-original="#00b5ff" class=""></path><path fill="#0047eb" d="M54.764 15.202c-1.225-.768-8.92-4.188-11.776-2.957-2.856 1.231-1.78 9.515-1.78 9.515s7.644-5.773 13.556-6.558z" paint-order="stroke fill markers" opacity="1" data-original="#0047eb" class=""></path><path fill="#ffffff" d="M48.868 16.512c-.856-.388-3.34-1.33-3.68-.257-.339 1.072-.47 2.543-.403 2.535.067-.008 4.083-2.278 4.083-2.278z" paint-order="stroke fill markers" opacity="1" data-original="#ffffff" class=""></path><path fill="#0047eb" d="M86.405 19.826c1.394-.385 9.746-1.461 12.13.536 2.384 1.997-1.016 9.626-1.016 9.626s-5.673-7.719-11.114-10.162z" paint-order="stroke fill markers" opacity="1" data-original="#0047eb" class=""></path><path fill="#ffffff" d="M91.68 22.768c.931-.127 3.581-.319 3.6.806.018 1.125-.277 2.571-.34 2.545-.062-.027-3.26-3.351-3.26-3.351z" paint-order="stroke fill markers" opacity="1" data-original="#ffffff" class=""></path><path fill="#0047eb" d="M99.483 41.3c2.032-13.905-10.855-25.5-28.466-28.073-17.611-2.573-33.277 4.849-35.309 18.755C33.676 45.888 46.06 60.927 63.671 63.5c17.611 2.573 33.78-8.293 35.812-22.2z" paint-order="stroke fill markers" opacity="1" data-original="#0047eb" class=""></path><path fill="#ffffff" d="M38.5 45.443a.346.346 0 0 0-.018-.002.346.346 0 0 0-.02-.001.346.346 0 0 0-.357.337c0-.03-.004.064-.016.172a20.674 20.674 0 0 0-.093 1.937c-.004 1.238.1 2.91.516 4.746.832 3.673 2.938 8.023 7.96 10.793 1.503.83 2.293 1.708 2.706 2.593.38.817.444 1.66.39 2.516.218.134.439.266.661.396.007-.04.008-.082.013-.123.084-.989.046-2.046-.437-3.082-.483-1.035-1.404-2.025-3-2.905-4.824-2.663-6.816-6.797-7.618-10.342a20.82 20.82 0 0 1-.408-6.463c.01-.105.016-.144.019-.22a.346.346 0 0 0-.297-.351zm46.772 13.439a.346.346 0 0 0-.013-.001.346.346 0 0 0-.34.188c-.04.08-.038.103-.046.14-.01.036-.015.075-.023.12-.017.09-.035.205-.061.346a9.39 9.39 0 0 1-.282 1.115 9.52 9.52 0 0 1-1.812 3.26c-1.996 2.363-5.886 4.77-13.674 4.946-1.784.04-3.073.18-4.03.434-.959.255-1.6.636-2.013 1.154-.413.518-.579 1.137-.682 1.815-.061.394-.1.816-.15 1.262.225.055.451.108.679.16.055-.486.097-.93.156-1.318.097-.63.237-1.111.538-1.488s.78-.685 1.65-.916c.868-.23 2.113-.372 3.867-.411 7.927-.179 12.054-2.665 14.188-5.19A10.223 10.223 0 0 0 85.167 61c.154-.484.245-.896.302-1.195.028-.15.048-.272.063-.356.006-.043.015-.076.018-.094 0-.014.007-.016-.006.008a.346.346 0 0 0-.161-.446.346.346 0 0 0-.112-.035z" paint-order="stroke fill markers" opacity="1" data-original="#ffffff" class=""></path><path fill="#00004f" d="M98.556 46.393c-8.935 5.645-21.154 10.933-33.885 9.073-11.563-1.69-21.718-8.547-29.436-15.997 1.158 12.292 12.599 24.19 28.082 26.452 16.466 2.406 31.67-6.937 35.24-19.528z" paint-order="stroke fill markers" opacity="1" data-original="#00004f" class=""></path><path fill="#0047eb" d="M100.427 46.022a6.84 10.794 15.87 0 0 3.627 12.254 6.84 10.794 15.87 0 0 9.53-8.513 6.84 10.794 15.87 0 0-3.627-12.253 6.84 10.794 15.87 0 0-9.53 8.512z" paint-order="stroke fill markers" opacity="1" data-original="#0047eb" class=""></path><path fill="#0020d2" d="M106.02 38.098a6.84 10.794 15.87 0 0-5.593 7.924 6.84 10.794 15.87 0 0 3.627 12.253 6.84 10.794 15.87 0 0 6.537-2.764c-3.103 1.192-6.081.199-7.29-2.3-1.707-3.531-.61-8.983 2.719-15.113z" paint-order="stroke fill markers" opacity="1" data-original="#0020d2"></path><path fill="#ffffff" d="M109.405 48.225c-.298 1.049 0 2.052.664 2.241.664.19 2.126-.261 2.424-1.31s-.68-2.3-1.344-2.489c-.665-.189-1.445.508-1.744 1.558z" paint-order="stroke fill markers" opacity="1" data-original="#ffffff" class=""></path><path fill="#0047eb" d="M22.675 77.17c2.275.036 14.204-3.045 14.826-4.222.623-1.176-1.22-5.267-1.841-7.612-.62-2.345-2.55-5.243-7.015-5.719-4.465-.475-6.72 2.807-7.215 7.063s-.256 10.58 1.245 10.49z" paint-order="stroke fill markers" opacity="1" data-original="#0047eb" class=""></path><path fill="#007bf1" d="M43.44 80.279c-1.688.783-2.265 3.049-1.73 3.172.536.124 2.267-3.625 2.308-1.442.04 2.184 1.73-1.194 1.194-1.895-.535-.7-1.771.165-1.771.165z" paint-order="stroke fill markers" opacity="1" data-original="#007bf1"></path></g></svg>