<svg xmlns="http://www.w3.org/2000/svg" version="1.1" xmlns:xlink="http://www.w3.org/1999/xlink" width="512" height="512" x="0" y="0" viewBox="0 0 512 512" style="enable-background:new 0 0 512 512" xml:space="preserve" class=""><g><path d="M403.024 70.683c-12.397-8.413-32.238-18.299-58.242-19.654l52.389-19.469s-40.147-13.949-84.958-9.535l27.263-18.164C284.563-8.87 182.572 7.222 120.077 92.427c-55.027 75.019-33.971 148.18-21.842 177.081l9.015 16.711h94.504L376.97 153.245l-19.308-57.556c14.735-6.875 29.937-15.121 45.362-25.006z" style="" fill="#002c54" data-original="#002c54"></path><g style="opacity:0.2;"><path d="M133.668 101.259c-2.847 32.898 38.965 47.584 65.595 46.997.791-.019.714-1.647-.041-1.733-24.937-2.831-65.275-13.837-64.859-45.14.007-.532-.642-.738-.695-.124zM148.675 98.409c4.12 10.288 17.233 13.608 26.972 15.634 14.205 2.955 29.396 4.004 43.863 3.826 43.147-.53 86.157-18.54 122.151-41.227.824-.516.609-2.892-.482-2.353-36.114 17.816-72.349 34.846-112.981 38.682-14.214 1.341-28.734.389-42.92-1.055-10.971-1.117-30.287-2.756-35.827-14.235-.408-.842-1.01.141-.776.728z" style="" fill="#ffffff" data-original="#ffffff"></path><path d="M179.506 88.598c21.517 14.14 53.545 10.517 77.008 3.907 27.27-7.686 56.983-26.574 72.561-50.665.764-1.175.041-4.788-1.801-3.345-10.837 8.528-20.268 18.617-31.499 26.771-11.635 8.447-24.648 14.814-38.237 19.418-12.908 4.37-26.208 5.975-39.736 6.73-12.433.694-26.482.538-37.546-5.822-1.254-.717-1.729 2.366-.75 3.006zM156.164 92.365c11.685-18.89 28.679-34.732 47.849-45.812 20.099-11.61 42.301-16.209 64.349-22.428 1.975-.558 1.603-5.366-.609-5.314-24.385.586-49.327 10.035-69.782 22.902-9.808 6.168-18.541 13.859-26.007 22.712-6.818 8.089-14.174 16.656-16.751 27.136-.135.53.481 1.558.951.804z" style="" fill="#ffffff" data-original="#ffffff"></path></g><path d="M357.662 95.689c-61.416 28.617-114.765 33.42-141.975 33.62l24.82 13.197c-41.265 20.825-75.334 12.292-91.846 5.435-30.752 57.573-35.844 130.048-35.844 130.048-4.702-4.599-9.653-7.295-14.582-8.481-24.407-5.887-48.677 24.605-41.718 40.83 8.363 19.504 62.99-17.294 62.99-17.294 13.952 55.767 134.383 49.075 134.383 49.075l-.84 8.111 16.865 18.645 19.236-17.016-7.327-17.032 1.299-5.924c30.282-8.296 121.019-35.927 151.965-76.557 31.597-41.497-4.237-128.474-77.426-156.657z" style="" fill="#ffa33e" data-original="#ffa33e" class=""></path><path d="M296.812 239.548c0 31.408-25.207 56.866-56.313 56.866-31.098 0-56.305-25.459-56.305-56.866 0-31.411 25.207-56.87 56.305-56.87 31.106-.001 56.313 25.458 56.313 56.87z" style="" fill="#ffffff" data-original="#ffffff"></path><path d="M299.9 240.64c0 31.399-27.815 59.101-58.904 59.101-26.463 0-50.767-20.34-56.802-45.161 18.914-10.188 64.537-29.071 115.687-22.296.267 2.208.019 6.068.019 8.356z" style="" fill="#ffa33e" data-original="#ffa33e" class=""></path><path d="M282.593 211.945c0 7.389-5.364 13.383-11.986 13.383-6.62 0-11.984-5.994-11.984-13.383 0-7.388 5.364-13.38 11.984-13.38 6.622.001 11.986 5.993 11.986 13.38z" style="" fill="#002c54" data-original="#002c54"></path><path d="m296.812 217.925-109.551-2.652c8.963-19.436 32.142-36.241 54.779-36.241 23.516 0 46.361 18.202 54.772 38.893z" style="" fill="#ffa33e" data-original="#ffa33e" class=""></path><path d="M202.062 180.31c9.791 34.299 58.813 44.237 83.513 20.747.504-.479.435-4.653-.248-4.549-16.376 2.503-30.138 9.441-47.178 6.011-13.737-2.769-28.906-12.868-35.779-25.219-.088-.159-.461 2.456-.308 3.01zM202.466 283.418c5.201-10.541 19.542-14.348 30.444-14.387 10.088-.038 19.566 4.735 24.963 13.241.75 1.185 5.225-.71 4.843-1.299-7.272-11.473-21.345-15.593-34.38-13.412-11.083 1.857-25.271 5.814-30.642 16.723-.348.694 4.172.356 4.772-.866z" style="" fill="#002c54" data-original="#002c54"></path><path d="M371.854 190.475c9.663 24.564 2.751 50.28-15.437 57.44-18.2 7.161-40.785-6.947-50.454-31.509-9.665-24.563-2.754-50.279 15.444-57.441 18.198-7.16 40.783 6.949 50.447 31.51z" style="" fill="#ffffff" data-original="#ffffff"></path><path d="M321.326 209.567c2.063 5.899.69 11.75-3.069 13.063-3.761 1.318-8.478-2.4-10.539-8.305-2.071-5.899-.697-11.747 3.066-13.063 3.757-1.316 8.479 2.405 10.542 8.305zM297.168 176.229c-.141-14.582 4.186-28.17 14.413-38.788 4.494-4.671 10.264-7.598 16.392-9.475 6.321-1.936 13.178-.795 19.387-2.672 1.299-.392 1.02-6.542.041-7.254-14.675-10.67-33.181 1.427-41.886 13.921-8.889 12.753-11.714 30.6-9.491 45.766.449 3.062 1.158-.24 1.144-1.498z" style="" fill="#002c54" data-original="#002c54"></path><path d="m303.231 213.6 1.392 27.878s11.427-14.219 16.443-7.807c5.022 6.411-5.292 23.418-33.73 21.186 0 0-2.787 6.971-6.692 5.019-3.902-1.951-.554-16.727 13.101-9.2" style="" fill="#ffa33e" data-original="#ffa33e" class=""></path><path d="M282.027 261.06a3.918 3.918 0 0 1-1.755-.435c-1.168-.585-1.889-1.971-1.975-3.805-.122-2.603 1.077-6.054 4.024-7.892 2.142-1.33 5.935-2.235 11.828 1.017l-.805 1.464c-4.112-2.265-7.616-2.633-10.133-1.059-2.367 1.471-3.336 4.345-3.243 6.393.055 1.192.449 2.084 1.053 2.386.602.299 1.184.337 1.772.109 1.825-.689 3.336-3.62 3.766-4.689l.227-.571.616.048c18.661 1.459 29.31-5.535 32.765-11.971 1.626-3.037 1.715-5.98.241-7.868-.705-.894-1.559-1.334-2.624-1.34-.007-.002-.022-.002-.029-.002-4.198 0-10.434 6.607-12.483 9.156l-1.38 1.714-1.502-30.073 1.67-.085 1.292 25.792c2.512-2.781 7.964-8.176 12.404-8.176l.043.001c1.586.011 2.904.679 3.931 1.981 1.894 2.428 1.863 6.049-.088 9.69-3.656 6.811-14.687 14.215-33.775 12.891-.59 1.253-2.178 4.191-4.475 5.065a3.824 3.824 0 0 1-1.365.259zM57.608 301.003s4.327-14.648 19.843-17.543c15.509-2.905 26.384 2.782 24.065 11.666-2.321 8.885-29.689 17.22-21.639 1.309l-8.339 1.748 11.48-4.085s-7.943 10.655 3.659 9.571c11.592-1.112 17.118-11.801 10.556-16.162-6.561-4.372-25.762-7.553-39.625 13.496zM249.422 343.884l-22.306 33.358 29.279 10.591z" style="" fill="#002c54" data-original="#002c54"></path><path d="m284.276 367.762 22.478-15.334 33.085 46.665-45.927 8.471-8.525-38.688" style="" fill="#ffa33e" data-original="#ffa33e" class=""></path><path d="m301.844 378.91 11.695 50.185-69.134 4.452 8.645-83.317c21.348 7.36 28.775-15.402 28.775-15.402l45.095 31.541-25.076 12.541zM385.555 315.353l-14.484 5.71-32.624-52.824 13.106-13.099z" style="" fill="#002c54" data-original="#002c54"></path><path d="M402.279 341.226c-13.93 20.574-23.413 7.862-23.413 7.862l-13.937 33.168-25.09-3.343c1.674-2.51 25.09-43.775 25.09-43.775s-22.296-23.967-12.547-32.882c7.31-6.692 20.197 4.297 25.46 12.411l9.113-3.358 15.324 29.917z" style="" fill="#ffa33e" data-original="#ffa33e" class=""></path><path d="m340.536 379.374-1.388-.928c1.533-2.302 22.014-38.366 24.753-43.188-2.532-2.805-15.217-17.395-14.814-27.457.108-2.53 1.025-4.607 2.735-6.17 3.668-3.355 9.087-2.982 15.248 1.047 7.85 5.125 15.064 14.889 13.784 18.653-.817 2.418-2.735 3.987-5.118 4.196-2.899.263-8.915-1.359-16.461-15.069l1.466-.808c7.353 13.361 12.827 14.394 14.847 14.213 1.71-.152 3.081-1.3 3.685-3.069.831-2.45-5.34-11.635-13.113-16.718-3.864-2.525-9.302-4.787-13.209-1.208-1.392 1.269-2.102 2.905-2.19 5.002-.415 10.247 14.63 26.541 14.783 26.707l.413.447-.301.533c-.957 1.686-23.448 41.315-25.12 43.817z" style="" fill="#002c54" data-original="#002c54"></path><path d="M371.74 324.659c-1.567 7.622-2.364 20.021 5.003 25.042.824.562 1.166-.873.884-1.43-1.76-3.512-3.589-6.737-4.406-10.63-.891-4.215-.43-8.557-.59-12.822-.027-.686-.731-.923-.891-.16z" style="" fill="#002c54" data-original="#002c54"></path><path d="M374.427 340.023c5.779 8.461 18.692 4.898 25.013-.584.31-.268.208-1.366-.339-1.126-7.489 3.281-17.047 7.385-24.233.786-.463-.426-.637.63-.441.924zM374.145 333.404c8.378.058 16.469-2.993 21.412-10.041.186-.264-.014-1.122-.415-.773-6.336 5.559-12.385 9.149-21.023 9.556-.564.028-.531 1.254.026 1.258z" style="" fill="#002c54" data-original="#002c54"></path><path d="m380.063 325.668 17.072 30.106 18.253 8.363-4.461-19.233-22.578-27.041z" style="" fill="#002c54" data-original="#002c54"></path><path d="M407.323 316.651c-10.56 9.876-22.752 14.005-27.232 9.217-4.48-4.79.463-16.679 11.024-26.557 10.563-9.876 22.759-14.004 27.234-9.217 4.48 4.787-.456 16.677-11.026 26.557zM248.311 422.68l-12.265-86.143s-18.962 19.512-41.819 11.709c-22.859-7.806-16.168-48.505-16.168-48.505h41.819l-1.118 27.877s62.725-35.962 47.111 90.324l-17.56 4.738z" style="" fill="#ffa33e" data-original="#ffa33e" class=""></path><path d="m266.702 418.044-1.662-.205c6.008-48.611.917-79.805-14.723-90.213-13.663-9.091-30.97.618-31.141.719l-1.313.748 1.139-28.517H178.78c-.729 5.377-4.595 39.944 15.721 46.878 22.083 7.543 40.754-11.307 40.94-11.499l1.199 1.167c-.186.198-19.59 19.801-42.683 11.917-23.26-7.943-17.004-47.744-16.724-49.436l.114-.7h43.395l-1.091 27.319c4.439-2.129 19.315-8.15 31.586.003 16.442 10.932 21.646 41.824 15.465 91.819z" style="" fill="#002c54" data-original="#002c54"></path><path d="M218.003 334.886c-11.742-6.402-9.509-21.931-11.606-32.817-.208-1.108-1.569-1.702-1.963-.341-3.465 11.73 1.841 29.247 13.4 34.233.511.217.556-.863.169-1.075zM206.925 333.886c-12.442-5.973-9.596-20.569-11.487-31.651-.127-.743-.977-1.052-1.259-.22-3.842 11.417.456 29.274 12.438 33.83.938.357 1.05-1.602.308-1.959zM193.307 339.887c-11.458-7.812-6.18-25.41-5.672-36.824.033-.78-1.037-2.131-1.622-.966-4.614 9.24-6.703 36.059 7 38.96.576.123.676-.909.294-1.17z" style="" fill="#002c54" data-original="#002c54"></path><path d="M423.68 419.121s-66.374-77.025-145.318-13.798c0 0-94.917-53.484-114.22 21.171l259.538-7.373z" style="" fill="#99d7f7" data-original="#99d7f7"></path><path d="M170.878 418.686c7.783-17.407 27.488-21.82 44.828-22.203 18.966-.412 36.087 7.894 51.331 18.33.435.297.576-.58.294-.817-24.025-20.284-81.316-33.098-96.66 4.509-.068.158.114.404.207.181z" style="" fill="#ffffff" data-original="#ffffff"></path><path d="M179.437 417.598c8.862-14.772 23.557-17.611 39.557-15.953.415.041.43-.914.067-1.01-17.099-4.451-31.464.678-40.18 16.164-.227.407.191 1.402.556.799z" style="" fill="#ffffff" data-original="#ffffff"></path><path d="M185.765 419.917c3.838-10.376 21.266-10.394 30.126-10.62 12.987-.333 26.203 2.166 37.207 9.28.349.228.468-.469.234-.658-12.325-9.816-28.13-11.875-43.433-10.997-8.755.499-22.398 2.555-24.803 12.584-.111.455.443 1.021.669.411zM287.242 412.665c31.01-34.851 89.422-29.996 119.07 3.874.454.517.724-.414.482-.775-24.694-37.524-93.584-41.099-119.902-3.748-.158.228.061.974.35.649z" style="" fill="#ffffff" data-original="#ffffff"></path><path d="M295.481 415.957c11.948-15.51 34.726-16.547 52.79-16.325 16.877.209 36.796 3.299 46.796 18.416.456.684.876-.426.697-.862-6.918-16.646-29.403-19.336-45.117-20.113-19.193-.947-44.049.609-55.87 17.873-.341.5.155 1.72.704 1.011z" style="" fill="#ffffff" data-original="#ffffff"></path><path d="M310.209 418.941c4.447-10.599 22.009-11.746 31.533-12.141 12.557-.523 24.861 2.688 36.727 6.43.912.288.979-1.514.289-1.843-14.587-6.973-31.285-9.123-47.233-6.824-8.378 1.206-19.557 4.688-22.136 13.688-.164.59.45 1.576.82.69z" style="" fill="#ffffff" data-original="#ffffff"></path><path d="M266.299 425.719c.155-7.871 7.093-9.957 13.839-9.611 3.181.164 6.2 1.051 9.039 2.456 3.589 1.782 4.588 4.76 6.854 7.688.415.537.795-.111.809-.542.564-15.845-35.593-17.34-30.673.039.031.113.132.073.132-.03z" style="" fill="#002c54" data-original="#002c54"></path><path d="m426.13 424.504-265.478 5.406-5.237-16.099 126.27 7.718L429.187 407.1z" style="" fill="#ff4f8a" data-original="#ff4f8a"></path><path d="m125.902 427.475 325.903-8.354-5.24 87.638L137.953 512z" style="" fill="#ff4f8a" data-original="#ff4f8a"></path><path d="m155.809 489.026-.101-1.669 290.852-17.844.101 1.67zM142.956 471.184l-.034-1.673 217.07-4.784.034 1.67zM177.147 450.238h262.407v1.672H177.147z" style="" fill="#002c54" data-original="#002c54"></path><path d="M324.259 397.64h1.672v190.027h-1.672z" style="" transform="rotate(-87.306 325.11 492.655)" fill="#002c54" data-original="#002c54"></path><path d="m119.815 426.743 336.878-7.622-2.62 17.602-328.658 12.689z" style="" fill="#002c54" data-original="#002c54"></path></g></svg>